<svg id="Layer_1" data-name="Layer 1" xmlns="http://www.w3.org/2000/svg" viewBox="0 0 1296 1728"><path d="M683.8,354.11c8.19.62,15.87.23,22.8,3.51,3.51,1.66,6.57,4.37,9.64,6.83,7.44,6,14.71,12.13,22.18,18.05,1.8,1.43,2,2.57.71,4.27-4.65,6.43-44.17,62.2-52.54,73.74,0,0-47.72-65.49-53.67-73.43-2.29-3.06-2.32-3,.74-5.43,8.65-7,17.37-13.82,25.84-21a22.62,22.62,0,0,1,12.29-5.37C676,354.78,680.27,354.45,683.8,354.11Z"/><path d="M687.56,455.65c0-18.58-.24-39.34-.24-58l20.88-1.11C701.29,415.63,687.56,455.65,687.56,455.65Z" fill="#0091b3"/><path d="M685.4,397.67c0,17.82.91,39.63.91,57.28-.11,0-14.65-40.2-21.37-58.33Z" fill="#36b0c9"/><path d="M687.31,368.28c3.66-.31,7.11-.55,10.54-.91,1.26-.14,1.64.43,2,1.48,1.48,4.92,3,9.82,4.53,14.73,1.11,3.57,2.22,7.14,3.48,11.22l-20.51,1.08Z" fill="#003a5d"/><path d="M685.27,395.88l-20.69-1.06c1.34-3.51,2.5-6.57,3.69-9.62,2.09-5.4,4.23-10.78,6.3-16.2a1.89,1.89,0,0,1,2.41-1.47c2.68.38,5.4.46,8.29.69Z" fill="#0071ce"/><path d="M647.09,393.51c5.11.88,9.76,1.58,14.35,2.54a3.74,3.74,0,0,1,2.09,2.16c3,7.89,6,15.82,8.9,23.75,3.26,8.8,9.32,22.68,12.35,31.61C673.21,435.32,658.82,412,647.09,393.51Z" fill="#5fd0df"/><path d="M724.93,393.52c-11,18.14-24.85,42.21-35.56,59.91-.16-.08,14.28-39.12,19.46-53.57.89-2.46,1.89-4.09,4.9-4.32C717.29,395.27,720.8,394.3,724.93,393.52Z" fill="#63cfe3"/><path d="M709.12,361.81a22.76,22.76,0,0,1-10.64,3.84c-10.43,1.28-20.8,1.27-31-1.77a15.28,15.28,0,0,1-3.61-1.58c-1.49-.94-1.46-2,.14-2.78a24.47,24.47,0,0,1,6.19-2.24c10.45-1.64,20.92-1.88,31.29.58C704.21,358.5,707.17,359,709.12,361.81Z" fill="#19d3c5"/><path d="M673.48,367.29c-3.41,8.65-6.73,17.11-10.13,25.55-.23.59-1.15,1.4-1.63,1.33-4.84-.75-9.65-1.65-14.93-2.6,1.23-1.78,2.08-3.11,3-4.36q7.88-10.35,15.83-20.63a2.45,2.45,0,0,1,1.94-.73C669.46,366.17,671.29,366.73,673.48,367.29Z" fill="#00a0af"/><path d="M701.2,367.12c2.2-.65,4.38-2,5.91-1.52s2.43,2.92,3.54,4.54q7.11,10.37,14.18,20.76c.07.1,0,.28.09.8-4.73.85-9.47,1.76-14.24,2.48-.47.08-1.43-.85-1.63-1.48-2.07-6.59-4-13.22-6-19.83C702.46,371,701.83,369.1,701.2,367.12Z" fill="#10cfc9"/><path d="M660.76,362.08l3.79,2.93-14.49,19.06c-1.42,1.87-2.8,3.78-4.25,5.62-.31.4-.93.9-1.32.84-3-.54-10.15-3.75-11.13-6.42Z" fill="#5fd0df"/><path d="M738.19,384.77a21.22,21.22,0,0,1-10.64,5.83c-.34.08-1-.47-1.27-.89-5.72-8.35-11.4-16.73-17.16-25.21l1.83-2.16Z" fill="#89f7f2"/><path d="M734.33,390.62c-10.56,14.72-32.6,46.56-43.15,61.28C691,451.8,719.49,406,726,395.18c1.12-1.87,2.37-3.19,4.58-3.62a22.56,22.56,0,0,0,3.46-1.28Z" fill="#b9dbe5"/><path d="M637.5,390.14c2.34.79,4.1,1.28,5.76,2a4.58,4.58,0,0,1,1.86,1.72C653.94,407.65,684,453.61,684,454.4,672.54,438.87,649.27,406.15,637.5,390.14Z" fill="#92fffb"/></svg>