<?xml version="1.0" encoding="UTF-8"?><svg id="Layer_1" xmlns="http://www.w3.org/2000/svg" xmlns:xlink="http://www.w3.org/1999/xlink" viewBox="0 0 1200 504"><defs><style>.cls-1{stroke:#82469b;}.cls-1,.cls-2,.cls-3,.cls-4,.cls-5,.cls-6{fill:none;}.cls-1,.cls-2,.cls-4,.cls-5,.cls-6{stroke-miterlimit:10;}.cls-1,.cls-2,.cls-6{stroke-width:1.17px;}.cls-7{fill:#030303;}.cls-8{fill:#f57f2d;}.cls-2{stroke:#f57e2d;}.cls-9{fill:#82469b;}.cls-10{fill:#54bb6d;}.cls-11{fill:#73c274;}.cls-4{stroke-width:1.56px;}.cls-4,.cls-5{stroke:#50c2ba;}.cls-5{stroke-width:1.24px;}.cls-6{stroke:#73c274;}.cls-12{fill:url(#New_Pattern_Swatch_1);}.cls-13{fill:#73cbca;}</style><pattern id="New_Pattern_Swatch_1" x="0" y="0" width="280.2" height="280.2" patternTransform="translate(141.22 -80.64)" patternUnits="userSpaceOnUse" viewBox="0 0 280.2 280.2"><g><rect class="cls-3" width="280.2" height="280.2"/><rect class="cls-7" width="280.2" height="280.2"/><g><circle class="cls-4" cx="43.14" cy="262.3" r="4.92"/><circle class="cls-6" cx="43.14" cy="190.35" r="3.45"/><circle class="cls-6" cx="78.94" cy="114.25" r="3.45"/><circle class="cls-6" cx="131.1" cy="220.85" r="3.95"/><circle class="cls-11" cx="268.33" cy="237.85" r="1.9"/><circle class="cls-4" cx="191.72" cy="199.75" r="4.92"/><circle class="cls-5" cx="103.41" cy="43.58" r="3.93"/><circle class="cls-2" cx="264.13" cy="266.3" r="3.97"/><circle class="cls-6" cx="212.12" cy="9.89" r="3.45"/><circle class="cls-2" cx="43.14" cy="21.26" r="3.97"/><circle class="cls-1" cx="264.13" cy="158.47" r="3.97"/><circle class="cls-1" cx="176.57" cy="110.8" r="5.31"/><circle class="cls-9" cx="152.74" cy="160.25" r="2.24"/><circle class="cls-9" cx="266.43" cy="39.65" r="1.64"/><circle class="cls-9" cx="5.99" cy="14.98" r="1.64"/><circle class="cls-9" cx="167.18" cy="57.99" r="2.24"/><circle class="cls-8" cx="131.1" cy="13.34" r="2.24"/><circle class="cls-8" cx="215.57" cy="60.23" r="2.24"/><circle class="cls-8" cx="134.69" cy="266.3" r="2.24"/><circle class="cls-8" cx="30.31" cy="142.34" r="2.24"/><circle class="cls-8" cx="65.97" cy="222.37" r="2.24"/><circle class="cls-8" cx="7.74" cy="235.66" r="1.75"/><circle class="cls-8" cx="200.82" cy="249.22" r="1.75"/><circle class="cls-10" cx="81.87" cy="264.06" r="1.75"/><circle class="cls-10" cx="236.1" cy="100.43" r="1.75"/><circle class="cls-8" cx="66.79" cy="69.86" r="2.24"/><circle class="cls-8" cx="132.86" cy="87.72" r="1.75"/><circle class="cls-8" cx="79.18" cy="150.01" r="2.24"/><circle class="cls-13" cx="16.43" cy="79.01" r="2.24"/><circle class="cls-13" cx="117.35" cy="174.27" r="2.24"/><circle class="cls-13" cx="243.14" cy="192.59" r="2.24"/><circle class="cls-4" cx="260.15" cy="117.7" r="4.92"/><circle class="cls-8" cx="202.57" cy="150.01" r="1.75"/></g></g></pattern></defs><rect class="cls-12" width="1200" height="504"/></svg>