<?xml version="1.0" encoding="UTF-8"?><svg id="Layer_1" xmlns="http://www.w3.org/2000/svg" viewBox="0 0 87.33 82.12"><defs><style>.cls-1{fill:#ffffff;}</style></defs><path class="cls-1" d="M86.5,34.8c-.35-.84-.65-1.57-.65-2.77,0-5.03-6.21-10.35-10.32-13.87l-.43-.37c-1.11-.95-2.11-2.33-3.27-3.93-2.65-3.65-5.95-8.2-13.04-11.35C50.47-1.19,46.54,.12,45.09,1c-10.94-2.5-20.41-.32-28.16,6.5-2.31,2.03-4.08,5.17-5.8,8.21-1.67,2.95-3.4,6.01-5.02,6.63C1.55,24.08-.23,31.44,1.28,36.62c.49,1.68,.01,3.2-.5,4.81-.65,2.06-1.39,4.39,.05,7.04,1.06,1.95,2.68,3.05,4.11,4.02,2,1.36,2.95,2.1,2.73,4.03-.65,5.66,2.69,10.03,6.05,13.56,1.21,1.27,2.56,1.91,4.03,1.91,.09,0,.18,0,.27,0,2.81-.15,4.79-2.6,5.04-2.92l.15,.22c3.29,4.69,4.04,5.75,6.39,4.65,.5,.34,1.41,1.71,1.97,2.56,.99,1.5,2.02,3.05,3.23,3.75,1.71,.99,4.39,1.89,7.21,1.89,2.18,0,4.43-.53,6.37-1.96l.45-.33,.04-.32c.24-.25,1.29-1.13,4.94-2.07,2.43-.63,5.28-2.27,8.01-4.63,.55-.47,.61-1.3,.13-1.84-.47-.54-1.3-.61-1.84-.13-2.43,2.1-4.9,3.55-6.95,4.08-4.35,1.12-6.04,2.36-6.61,3.35-3.79,2.54-8.78,.68-10.42-.27-.68-.4-1.61-1.8-2.36-2.94-1.43-2.15-3.04-4.59-5.13-3.54-.17,.08-.27,.13-.34,.16-.46-.35-1.51-1.85-2.93-3.88-.75-1.07-1.67-2.38-2.81-3.96-2.15-3-3.85-5.76-2.91-9.23,.31-1.13,.49-2.11,.61-3.39,.19-1.91,1.15-4.22,2.24-5.37,.21-.22,.48-.42,.77-.64,.23-.17,.46-.35,.67-.53,2.52-2.19,3.54-3.77,5.28-6.45,0,0,1.61-3.07,1.32-3.49,.05-.26,.08-.52,.08-.79,0-2.23-1.81-4.03-4.03-4.03s-4.03,1.81-4.03,4.03c0,2.11,1.63,3.82,3.69,4-1.21,1.76-2.51,3.45-4.01,4.75-.17,.15-.36,.29-.54,.43-.34,.26-.73,.55-1.08,.93-1.74,1.83-2.74,4.87-2.94,6.91-.11,1.12-.27,1.98-.53,2.96-1.25,4.57,.95,8.16,3.3,11.45,.44,.61,.83,1.17,1.21,1.7-.24,.08-.47,.21-.63,.42-.36,.47-1.72,1.84-3.11,1.91-.78,.04-1.52-.32-2.26-1.1-4.23-4.44-5.78-7.75-5.35-11.45,.42-3.59-1.85-5.14-3.86-6.5-1.3-.88-2.52-1.71-3.28-3.11-.91-1.67-.44-3.14,.14-5,.58-1.82,1.23-3.89,.52-6.33-1.14-3.91,.16-9.92,3.26-11.1,2.5-.95,4.29-4.12,6.36-7.78,1.61-2.85,3.28-5.8,5.25-7.54C25.87,3.12,34.76,1.17,45.07,3.69l.71,.12,.51-.46s2.73-2.32,11.43,1.55c6.45,2.87,9.52,7.1,11.99,10.5,1.21,1.66,2.34,3.23,3.69,4.38l.43,.37c3.52,3.01,9.41,8.05,9.41,11.88,0,1.73,.45,2.82,.85,3.77,.71,1.71,1.38,3.32-1.31,10.09-2.47,6.24-1.94,8.14-.99,9.99,.37,.71,.57,1.11,.2,2.48-.3,1.12-3.11,10.86-8.89,9.37-2.21-.57-2.17-1.46-2.1-3.07,.05-1.28,.15-3.42-2.29-4.1-2.62-.73-3.91-11.17-4.39-14-.38-2.2-3.05-4.78-6.23-8.34-.11-.12-.23-.22-.35-.33,.21,.03,.42,.06,.64,.06,2.23,0,4.03-1.81,4.03-4.03s-1.81-4.03-4.03-4.03-3.87,1.67-4.01,3.77c-.76,2.81,1.56,6.07,1.76,6.3,1.9,2.12,4.9,2.94,5.6,7.04,1.07,6.23,2.56,15.05,6.27,16.08,.36,.1,.43,.12,.37,1.47-.07,1.73-.2,4.61,4.06,5.71,6.25,1.61,10.41-5.04,12.07-11.22,.63-2.35,.06-3.47-.41-4.36-.53-1.03-1.14-2.19,1.1-7.82,2.85-7.2,2.34-9.53,1.29-12.05Z"/><path class="cls-1" d="M49.36,48.8c.34-2.55-6.38-2.51-6.38-2.51,0,0-6.74-.04-6.4,2.51,.34,2.55,1.12,8.84,6.39,9.01,5.27-.17,6.05-6.46,6.39-9.01Z"/><path class="cls-1" d="M52.51,60.52c-.45-.58-1.29-.67-1.87-.22-8.23,6.5-14.3,.07-14.55-.21-.49-.54-1.33-.58-1.87-.09-.54,.49-.59,1.33-.09,1.88,.03,.04,1.41,1.51,3.73,2.66h0s-3.95,10.22,4.71,10.22c7.41,0,5.58-7.46,4.9-9.63,1.53-.54,3.15-1.42,4.84-2.75,.58-.45,.67-1.29,.22-1.87Z"/></svg>