<?xml version="1.0" encoding="UTF-8"?><svg id="Layer_1" xmlns="http://www.w3.org/2000/svg" viewBox="0 0 220.85 220.85"><defs><style>.cls-1{fill:#19d3c5;}.cls-2{fill:#63cfe3;}.cls-3{fill:#b9dbe5;}.cls-4{fill:#003a5d;}.cls-5{fill:#36b0c9;}.cls-6{fill:#0071ce;}.cls-7{fill:#5fd0df;}.cls-8{fill:#00a0af;}.cls-9{fill:#89f7f2;}.cls-10{fill:#10cfc9;}.cls-11{fill:#fce200;opacity:.6;}.cls-12{fill:none;stroke:#fff;stroke-miterlimit:10;stroke-width:4px;}.cls-13{fill:#0091b3;}.cls-14{fill:#92fffb;}</style></defs><g><g><path d="M106.69,59.82c10.57,.74,20.48,.28,29.42,4.13,4.53,1.95,8.48,5.14,12.45,8.04,9.6,7.01,18.98,14.26,28.62,21.22,2.33,1.68,2.52,3.02,.92,5.03-6,7.56-57.02,73.13-67.82,86.71,0,0-61.6-77.02-69.28-86.35-2.96-3.6-3-3.49,.95-6.38,11.16-8.18,22.42-16.26,33.35-24.69,4.72-3.64,9.92-5.66,15.88-6.31,5.46-.6,10.94-.99,15.5-1.39Zm2.07,51.22c-8.88-.41-17.47-.81-26.41-1.23,8.67,21.31,17.32,42.57,25.97,63.82l.44-.12v-62.47Zm2.45-34.56v32.46c8.87-.42,17.49-.83,26.48-1.26-1.63-4.8-3.06-9-4.48-13.2-1.96-5.77-3.95-11.53-5.85-17.32-.41-1.24-.91-1.9-2.53-1.74-4.43,.43-8.88,.71-13.61,1.07Zm-2.62,32.46v-32.53c-3.73-.26-7.24-.36-10.7-.81-1.83-.24-2.53,.33-3.12,1.74-2.67,6.36-5.43,12.69-8.14,19.04-1.53,3.59-3.02,7.19-4.76,11.31,9.2,.43,17.86,.84,26.71,1.25Zm-49.28-2.78c15.13,21.73,30.08,43.19,45.02,64.64-3.91-10.5-8.1-20.85-12.32-31.2-3.79-9.32-7.57-18.65-11.49-27.92-.44-1.04-1.63-2.33-2.69-2.54-5.93-1.13-11.93-1.96-18.52-2.99Zm80.07-37.29c-2.53-3.32-6.34-3.89-9.83-4.65-13.39-2.88-26.9-2.61-40.39-.67-2.75,.4-5.42,1.55-7.99,2.63-2.07,.87-2.11,2.16-.18,3.26,1.42,.81,3.04,1.42,4.66,1.86,13.14,3.58,26.52,3.59,39.99,2.09,4.82-.54,9.36-1.76,13.74-4.52Zm-46,6.45c-2.83-.65-5.19-1.32-7.6-1.69-.78-.12-2.02,.3-2.5,.86-6.87,8.04-13.66,16.15-20.44,24.26-1.23,1.47-2.33,3.04-3.93,5.13,6.82,1.11,13.03,2.18,19.28,3.05,.62,.09,1.8-.87,2.11-1.56,4.39-9.92,8.67-19.88,13.08-30.04Zm35.78-.2c.82,2.33,1.63,4.54,2.36,6.76,2.58,7.77,5.1,15.57,7.77,23.32,.26,.74,1.5,1.84,2.11,1.75,6.16-.85,12.28-1.92,18.38-2.92-.07-.61-.02-.82-.11-.94-6.09-8.14-12.18-16.28-18.31-24.41-1.44-1.91-2.61-4.74-4.57-5.35-1.98-.61-4.79,1.03-7.63,1.79Zm-52.21-5.92c-11.81,8.65-23.62,17.3-35.36,25.9,1.27,3.15,10.5,6.92,14.37,7.55,.5,.08,1.29-.51,1.69-.98,1.88-2.17,3.65-4.41,5.49-6.62,6.24-7.49,12.5-14.98,18.7-22.41-1.62-1.14-3.1-2.18-4.89-3.44Zm99.95,26.68c-11.84-8.89-23.48-17.62-35.15-26.37-.94,1-1.65,1.77-2.37,2.54,7.44,9.97,14.77,19.83,22.15,29.65,.36,.48,1.21,1.14,1.64,1.04,5.09-1.18,9.78-3.06,13.73-6.86Z"/><path class="cls-13" d="M111.55,179.22c0-21.85-.31-46.25-.31-68.18,8.96-.44,17.73-.86,26.95-1.31-8.92,22.43-26.64,69.5-26.64,69.5Z"/><path class="cls-5" d="M108.76,111.04c0,20.96,1.17,46.61,1.17,67.36-.15,.04-18.91-47.28-27.58-68.59,8.94,.41,17.53,.81,26.41,1.23Z"/><path class="cls-4" d="M111.21,76.48c4.73-.36,9.18-.64,13.61-1.07,1.63-.16,2.12,.5,2.53,1.74,1.91,5.78,3.89,11.55,5.85,17.32,1.43,4.2,2.85,8.4,4.48,13.2-8.99,.43-17.61,.84-26.48,1.26v-32.46Z"/><path class="cls-6" d="M108.59,108.94c-8.85-.41-17.51-.82-26.71-1.25,1.73-4.12,3.23-7.72,4.76-11.31,2.71-6.35,5.47-12.68,8.14-19.04,.59-1.41,1.29-1.98,3.12-1.74,3.46,.45,6.97,.55,10.7,.81v32.53Z"/><path class="cls-7" d="M59.3,106.16c6.59,1.03,12.59,1.86,18.52,2.99,1.06,.2,2.25,1.5,2.69,2.54,3.92,9.28,7.7,18.6,11.49,27.92,4.21,10.35,12.04,26.67,15.95,37.17-14.94-21.46-33.52-48.88-48.66-70.61Z"/><path class="cls-2" d="M159.79,106.17c-14.17,21.32-32.08,49.63-45.91,70.44-.21-.09,18.43-46,25.13-62.98,1.14-2.89,2.43-4.81,6.32-5.08,4.59-.32,9.12-1.46,14.46-2.38Z"/><path class="cls-1" d="M139.38,68.87c-4.38,2.76-8.92,3.99-13.74,4.52-13.47,1.5-26.85,1.49-39.99-2.09-1.62-.44-3.23-1.05-4.66-1.86-1.93-1.1-1.89-2.39,.18-3.26,2.57-1.08,5.24-2.24,7.99-2.63,13.49-1.94,27.01-2.21,40.39,.67,3.49,.75,7.3,1.32,9.83,4.65Z"/><path class="cls-8" d="M93.37,75.32c-4.4,10.17-8.69,20.13-13.08,30.04-.31,.7-1.49,1.65-2.11,1.56-6.25-.87-12.46-1.94-19.28-3.05,1.6-2.09,2.7-3.66,3.93-5.13,6.78-8.11,13.57-16.21,20.44-24.26,.48-.56,1.72-.98,2.5-.86,2.41,.37,4.77,1.03,7.6,1.69Z"/><path class="cls-10" d="M129.15,75.12c2.84-.76,5.65-2.4,7.63-1.79,1.96,.6,3.13,3.44,4.57,5.35,6.12,8.12,12.21,16.26,18.31,24.41,.09,.12,.04,.33,.11,.94-6.1,1-12.22,2.07-18.38,2.92-.61,.09-1.85-1.01-2.11-1.75-2.67-7.75-5.19-15.54-7.77-23.32-.74-2.22-1.55-4.43-2.36-6.76Z"/><path class="cls-7" d="M76.94,69.19c1.79,1.26,3.28,2.31,4.89,3.44-6.21,7.43-12.46,14.92-18.7,22.41-1.84,2.2-3.61,4.45-5.49,6.62-.4,.47-1.2,1.06-1.69,.98-3.87-.63-13.1-4.4-14.37-7.55,11.75-8.6,23.56-17.25,35.36-25.9Z"/><path class="cls-9" d="M176.9,95.87c-3.95,3.79-8.65,5.68-13.73,6.86-.43,.1-1.28-.55-1.64-1.04-7.38-9.83-14.71-19.68-22.15-29.65,.72-.77,1.44-1.54,2.37-2.54,11.67,8.76,23.31,17.49,35.15,26.37Z"/><path class="cls-3" d="M171.92,102.75c-13.63,17.31-42.08,54.75-55.7,72.06-.21-.12,36.56-53.96,44.99-66.69,1.45-2.2,3.07-3.75,5.92-4.26,1.54-.28,2.99-.99,4.47-1.5l.33,.39Z"/><path class="cls-14" d="M46.92,102.19c3.02,.93,5.29,1.51,7.43,2.36,.95,.38,1.83,1.21,2.4,2.03,11.39,16.2,50.12,70.25,50.13,71.18-14.74-18.26-44.77-56.73-59.96-75.56Z"/></g><polygon class="cls-11" points="84.04 34.24 84.97 58.2 102.14 40.03 88.7 60.65 113.93 53.82 90.39 64.54 115.67 71.23 89.5 68.65 106.8 86.72 86.31 71.67 90.14 95.39 81.84 72.64 70.98 94.48 77.5 71.25 55.4 84.27 74.67 67.95 48.35 68.02 74.26 63.77 52.07 50.87 76.38 60.06 65.38 38.28 80.38 57.98 84.04 34.24"/><polygon class="cls-11" points="162.07 71.3 162.99 95.26 180.17 77.09 166.73 97.7 191.96 90.88 168.42 101.6 193.69 108.28 167.52 105.71 184.82 123.78 164.34 108.72 168.16 132.45 159.86 109.69 149 131.53 155.52 108.3 133.43 121.33 152.7 105 126.38 105.07 152.28 100.83 130.1 87.93 154.41 97.12 143.4 75.34 158.4 95.04 162.07 71.3"/></g><circle class="cls-12" cx="110.42" cy="110.42" r="108.42"/></svg>