<?xml version="1.0" encoding="UTF-8"?><svg id="Layer_1" xmlns="http://www.w3.org/2000/svg" viewBox="0 0 220.85 220.85"><defs><style>.cls-1{fill:#e23d96;}.cls-2{stroke-miterlimit:10;stroke-width:1.04px;}.cls-2,.cls-3,.cls-4{stroke:#010101;}.cls-2,.cls-5{fill:#010101;}.cls-6{fill:#ed1d7b;}.cls-7{fill:#d687b9;}.cls-8{fill:#aea097;}.cls-3{fill:#898a8c;stroke-width:1.15px;}.cls-3,.cls-9,.cls-4{stroke-miterlimit:10;}.cls-10{fill:#009779;}.cls-11{fill:#ec7723;}.cls-12{fill:#ffc60a;isolation:isolate;opacity:.6;}.cls-9{fill:none;stroke:#fff;stroke-width:4px;}.cls-13{fill:#047c60;}.cls-4{fill:#b0b1b1;stroke-width:1.15px;}</style></defs><g><rect class="cls-11" x="148.62" y="123.26" width="7.61" height="95.93" transform="translate(-42.78 51.04) rotate(-16.7)"/><path class="cls-5" d="M141.57,125.52l26.96,89.85-5.25,1.58-26.96-89.85,5.25-1.58m1.43-2.65l-2.04,.61-5.25,1.58-2.04,.61,.61,2.04,26.96,89.85,.61,2.04,2.04-.61,5.25-1.58,2.04-.61-.61-2.04-26.96-89.85-.61-2.04h0Z"/><g><path class="cls-4" d="M177.57,72.44c6.18,22.37,6.02,41.94-.37,43.7l-75.65,20.89s-8.19-25.96-11.12-36.56c-2.93-10.6-10.64-36.69-10.56-44.6,0,0,71.78-19.88,74.95-20.75,6.38-1.76,16.56,14.96,22.74,37.32Z"/><path class="cls-8" d="M179.48,83.89c3.19,16.89,2.48,30.37-2.74,31.81-3.32,.92-75.14,21.09-75.14,21.09,0,0-5.19-16.34-8.74-28.36l86.62-24.54Z"/><g><ellipse class="cls-3" cx="90.59" cy="96.51" rx="11.98" ry="42.08" transform="translate(-22.42 27.59) rotate(-15.43)"/><ellipse class="cls-10" cx="90.41" cy="96.67" rx="7.5" ry="28.73" transform="translate(-22.47 27.55) rotate(-15.43)"/><ellipse class="cls-13" cx="90.34" cy="97.03" rx="3.78" ry="14.34" transform="translate(-22.57 27.54) rotate(-15.43)"/></g><g><path class="cls-4" d="M177.57,72.44c6.18,22.37,6.02,41.94-.37,43.7l-75.65,20.89s-8.19-25.96-11.12-36.56c-2.93-10.6-10.64-36.69-10.56-44.6,0,0,71.78-19.88,74.95-20.75,6.38-1.76,16.56,14.96,22.74,37.32Z"/><path class="cls-8" d="M179.48,83.89c3.19,16.89,2.48,30.37-2.74,31.81-3.32,.92-75.14,21.09-75.14,21.09,0,0-5.19-16.34-8.74-28.36l86.62-24.54Z"/><g><ellipse class="cls-3" cx="90.59" cy="96.51" rx="11.98" ry="42.08" transform="translate(-22.42 27.59) rotate(-15.43)"/><ellipse class="cls-10" cx="90.41" cy="96.67" rx="7.5" ry="28.73" transform="translate(-22.47 27.55) rotate(-15.43)"/><ellipse class="cls-13" cx="90.34" cy="97.03" rx="3.78" ry="14.34" transform="translate(-22.57 27.54) rotate(-15.43)"/></g></g><g><ellipse class="cls-2" cx="90.35" cy="97.39" rx="3.34" ry="14.34" transform="translate(-22.54 27.36) rotate(-15.33)"/><ellipse class="cls-6" cx="90.39" cy="97.32" rx="3.34" ry="14.34" transform="translate(-22.52 27.37) rotate(-15.33)"/><path class="cls-5" d="M89.12,97.76c1.75,6.33,4.22,11.38,5.99,12.65,.35,.24,1.16-5.03-1.38-14.04-2.54-9.01-5.73-12.95-5.95-12.49-.85,2.05-.35,7.59,1.33,13.88Z"/></g><g><path class="cls-5" d="M34.42,113.26l61.06-9.99c-.32-4.99-1.74-9.85-4.16-14.24l-57.21,23.29c-.87,.35-.54,1.12,.31,.93Z"/><path class="cls-1" d="M90.72,90.39c1.83,3.81,3.05,7.88,3.61,12.06-19.86,2.93-37.15,6.11-56.58,9.32,19.97-8.07,33.11-13.34,52.97-21.38Z"/><path class="cls-7" d="M93.16,96.76l-55.41,15.01c25.84-4.3,26.94-4.43,56.58-9.32-.26-1.92-.65-3.83-1.17-5.69Z"/></g><polygon class="cls-12" points="43.21 91.65 37.81 108.69 53.3 99.82 39.6 111.27 57.45 112.18 39.71 114.36 54.24 124.82 38.13 117.06 44.71 133.7 35.34 118.46 31.89 135.99 32.24 118.12 19.85 131.03 29.77 116.19 12.4 120.31 28.79 113.23 11.92 107.27 29.59 110.17 18.61 96.11 31.85 108.07 30.22 90.24 34.93 107.5 43.21 91.65"/></g></g><path class="cls-9" d="M152.63,210.33c-12.97,5.49-27.23,8.52-42.2,8.52C50.54,218.85,2,170.3,2,110.42S50.54,2,110.42,2s108.42,48.54,108.42,108.42c0,37.37-18.9,70.32-47.67,89.81"/></svg>