<?xml version="1.0" encoding="UTF-8"?><svg id="Layer_1" xmlns="http://www.w3.org/2000/svg" xmlns:xlink="http://www.w3.org/1999/xlink" viewBox="0 0 220.85 224.28"><defs><style>.cls-1{fill:#cd4f9d;}.cls-2{fill:#231f20;stroke-width:3.44px;}.cls-2,.cls-3{stroke:#fff;}.cls-4{fill:#af892e;}.cls-5{fill:#36b0c9;}.cls-6{clip-path:url(#clippath);}.cls-3{fill:none;stroke-miterlimit:10;stroke-width:4px;}</style><clipPath id="clippath"><path class="cls-4" d="M44.78,95.68c8.51-35.77,44.83-57.81,81.12-49.21,36.3,8.6,58.82,44.56,50.32,80.34-3.93,16.54-13.81,30.14-26.88,39.13l25.07,58.35-37.76-51.48c-12.69,5.21-27.13,6.63-41.56,3.21-36.3-8.6-58.82-44.56-50.32-80.34Z"/></clipPath></defs><path class="cls-3" d="M152.63,210.33c-12.97,5.49-27.23,8.52-42.2,8.52C50.54,218.85,2,170.3,2,110.42S50.54,2,110.42,2s108.42,48.54,108.42,108.42c0,36.23-17.77,68.32-45.08,88"/><g><g><path class="cls-4" d="M44.78,95.68c8.51-35.77,44.83-57.81,81.12-49.21,36.3,8.6,58.82,44.56,50.32,80.34-3.93,16.54-13.81,30.14-26.88,39.13l25.07,58.35-37.76-51.48c-12.69,5.21-27.13,6.63-41.56,3.21-36.3-8.6-58.82-44.56-50.32-80.34Z"/><g class="cls-6"><path class="cls-5" d="M44.72,94.94c8.51-35.77,44.83-57.81,81.12-49.21,36.3,8.6,58.82,44.56,50.32,80.34-3.93,16.54-13.81,30.14-26.88,39.13l25.07,58.35-37.76-51.48c-12.69,5.21-27.13,6.63-41.56,3.21-36.3-8.6-58.82-44.56-50.32-80.34Z"/></g></g><circle class="cls-1" cx="110.95" cy="112.34" r="51.68"/></g><polygon class="cls-2" points="89.36 140.2 89.36 85.7 147.18 112.95 89.36 140.2"/></svg>